#N canvas 625 211 371 356 10;
#X obj 86 200 list trim;
#X obj 59 10 inlet;
#X obj 59 105 t b a;
#X obj 59 306 outlet;
#X obj 59 52 route bang;
#X obj 127 8 inlet;
#X obj 219 74 loadbang;
#X msg 59 284 daniel;
#X msg 219 96 anyword;
#X obj 219 203 list trim;
#X obj 219 148 list split 2;
#X obj 219 118 list prepend set \$1;
#X obj 86 180 list prepend set;
#X connect 0 0 7 0;
#X connect 1 0 4 0;
#X connect 2 0 7 0;
#X connect 2 1 12 0;
#X connect 4 0 7 0;
#X connect 4 1 2 0;
#X connect 5 0 12 0;
#X connect 6 0 8 0;
#X connect 7 0 3 0;
#X connect 8 0 11 0;
#X connect 9 0 7 0;
#X connect 10 0 9 0;
#X connect 11 0 10 0;
#X connect 12 0 0 0;
