#N canvas 666 163 487 417 10;
#X obj 99 242 spigot;
#X floatatom 317 168 5 0 0 0 - - -, f 5;
#X obj 131 162 % 2;
#X floatatom 131 184 5 0 0 0 - - -, f 5;
#X obj 317 146 % 2;
#X floatatom 165 99 5 0 0 0 - - -, f 5;
#X obj 315 113 + 1;
#X obj 318 193 tgl 15 0 empty empty empty 17 7 0 10 -262144 -1 -1 0
1;
#X obj 132 206 tgl 15 0 empty empty empty 17 7 0 10 -262144 -1 -1 0
1;
#X obj 188 249 spigot;
#X obj 69 5 inlet left;
#X obj 70 34 t a b;
#X obj 297 8 inlet control;
#X obj 166 76 f;
#X obj 142 322 outlet;
#X obj 70 77 s \$0-left;
#X obj 27 169 r \$0-left;
#X obj 297 35 clip 0 1;
#X obj 27 205 list append \$1;
#X obj 214 36 t a b;
#X obj 207 187 r \$0-right;
#X obj 214 79 s \$0-right;
#X obj 213 7 inlet right;
#X connect 0 0 14 0;
#X connect 1 0 7 0;
#X connect 2 0 3 0;
#X connect 3 0 8 0;
#X connect 4 0 1 0;
#X connect 5 0 2 0;
#X connect 5 0 6 0;
#X connect 6 0 4 0;
#X connect 7 0 9 1;
#X connect 8 0 0 1;
#X connect 9 0 14 0;
#X connect 10 0 11 0;
#X connect 11 0 15 0;
#X connect 11 1 13 0;
#X connect 12 0 17 0;
#X connect 13 0 5 0;
#X connect 16 0 9 0;
#X connect 16 0 18 0;
#X connect 17 0 13 0;
#X connect 18 0 0 0;
#X connect 19 0 21 0;
#X connect 19 1 13 0;
#X connect 20 0 18 1;
#X connect 20 0 9 0;
#X connect 22 0 19 0;
