#N canvas 444 148 357 297 10;
#X obj 76 18 inlet;
#X obj 79 103 sel \$1;
#X obj 148 146 + 1;
#X floatatom 117 167 5 0 0 0 - - -, f 5;
#X obj 79 81 cc_sequenceList;
#X obj 117 145 f 1;
#X msg 132 116 1;
#X obj 102 247 outlet;
#X obj 102 225 f 0;
#X obj 112 16 inlet elem;
#X obj 229 99 t b b b;
#X msg 231 208 0;
#X connect 0 0 4 0;
#X connect 1 0 5 0;
#X connect 2 0 5 1;
#X connect 3 0 8 1;
#X connect 4 0 1 0;
#X connect 4 1 10 0;
#X connect 5 0 2 0;
#X connect 5 0 3 0;
#X connect 6 0 5 1;
#X connect 8 0 7 0;
#X connect 9 0 1 1;
#X connect 10 0 11 0;
#X connect 10 1 6 0;
#X connect 10 2 8 0;
#X connect 11 0 8 1;
