#N canvas 287 260 450 300 10;
#X floatatom 64 36 5 0 0 0 - - -, f 5;
#X obj 64 55 t f b;
#X obj 64 144 tgl 15 0 empty empty empty 17 7 0 10 -262144 -1 -1 0
1;
#X obj 63 6 inlet;
#X obj 64 164 outlet;
#X text 7 186 test if current number is equal to previous;
#X obj 64 117 !=;
#X obj 64 95 cc_any;
#X obj 127 94 cc_any;
#X connect 0 0 1 0;
#X connect 1 0 7 0;
#X connect 1 1 8 0;
#X connect 2 0 4 0;
#X connect 3 0 0 0;
#X connect 6 0 2 0;
#X connect 7 0 6 0;
#X connect 7 0 8 1;
#X connect 8 0 6 1;
