#N canvas 281 170 450 300 10;
#X obj 108 44 inlet;
#X obj 108 125 list split \$1;
#X obj 145 158 list split 1;
#X floatatom 177 57 5 0 0 0 - - -, f 5;
#X obj 108 97 cc_any;
#X obj 179 32 inlet;
#X obj 177 80 t b f;
#X text 285 215 indexing is zero based;
#X obj 108 194 list append;
#X obj 108 252 outlet;
#X obj 108 216 list trim;
#X connect 0 0 4 0;
#X connect 1 0 8 0;
#X connect 1 1 2 0;
#X connect 2 1 8 1;
#X connect 3 0 6 0;
#X connect 4 0 1 0;
#X connect 5 0 3 0;
#X connect 6 0 4 0;
#X connect 6 1 1 1;
#X connect 8 0 10 0;
#X connect 10 0 9 0;
