#N canvas 185 168 295 208 10;
#X obj 42 87 sel \$1;
#X msg 43 122 1;
#X msg 75 123 0;
#X obj 50 160 tgl 15 0 empty empty empty 17 7 0 10 -262144 -1 -1 0
1;
#X obj 42 25 inlet;
#X obj 42 47 symbol;
#X obj 109 29 inlet;
#X obj 109 51 t b s;
#X obj 50 180 outlet;
#X connect 0 0 1 0;
#X connect 0 1 2 0;
#X connect 1 0 3 0;
#X connect 2 0 3 0;
#X connect 3 0 8 0;
#X connect 4 0 5 0;
#X connect 5 0 0 0;
#X connect 6 0 7 0;
#X connect 7 0 5 0;
#X connect 7 1 0 1;
