#N canvas 690 140 331 281 10;
#X obj 81 23 inlet;
#X obj 81 78 cc_indexList \$2;
#X obj 81 122 sel 1;
#X obj 81 164 cc_any;
#X obj 81 186 outlet;
#X obj 81 45 t a a, f 6;
#X obj 81 100 cc_equalToSymbol \$1;
#X obj 168 20 inlet;
#X obj 221 22 inlet;
#X text 36 212 let a message pass only if it is equal to;
#X text 41 239 comment;
#X connect 0 0 5 0;
#X connect 1 0 6 0;
#X connect 2 0 3 0;
#X connect 3 0 4 0;
#X connect 5 0 1 0;
#X connect 5 1 3 1;
#X connect 6 0 2 0;
#X connect 7 0 6 1;
#X connect 8 0 1 1;
