#N canvas 72 63 288 248 10;
#X obj 18 28 inlet;
#X obj 18 109 list split \$1;
#X obj 55 142 list split 1;
#X obj 55 164 outlet;
#X floatatom 87 41 5 0 0 0 - - -, f 5;
#X obj 18 81 cc_any;
#X obj 89 16 inlet;
#X obj 87 64 t b f;
#X text 43 206 indexing is zero based;
#X connect 0 0 5 0;
#X connect 1 1 2 0;
#X connect 2 0 3 0;
#X connect 4 0 7 0;
#X connect 5 0 1 0;
#X connect 6 0 4 0;
#X connect 7 0 5 0;
#X connect 7 1 1 1;
