#N canvas 58 102 344 268 10;
#X obj 13 94 list split 1;
#X obj 37 148 cc_any;
#X obj 13 13 inlet;
#X obj 114 110 until;
#X obj 114 20 list length;
#X obj 13 174 list trim;
#X obj 13 217 outlet;
#X obj 13 43 t a a;
#X floatatom 114 43 5 0 0 0 - - -, f 5;
#X obj 114 63 - 1;
#X obj 258 99 + 1;
#X obj 242 51 bng 15 250 50 0 empty empty empty 17 7 0 10 -262144 -1
-1;
#X obj 227 147 ==;
#X obj 227 169 sel 1;
#X obj 227 213 outlet done;
#X obj 114 85 t f f;
#X obj 114 132 t b b;
#X obj 261 186 s \$0-reset;
#X obj 242 16 r \$0-reset;
#X msg 242 75 1;
#X obj 227 99 f 1;
#X connect 0 0 5 0;
#X connect 0 1 1 1;
#X connect 1 0 0 0;
#X connect 2 0 7 0;
#X connect 3 0 16 0;
#X connect 4 0 8 0;
#X connect 5 0 6 0;
#X connect 7 0 4 0;
#X connect 7 1 0 0;
#X connect 8 0 9 0;
#X connect 9 0 15 0;
#X connect 10 0 20 1;
#X connect 11 0 19 0;
#X connect 12 0 13 0;
#X connect 13 0 14 0;
#X connect 13 0 17 0;
#X connect 15 0 3 0;
#X connect 15 1 12 1;
#X connect 16 0 20 0;
#X connect 16 1 1 0;
#X connect 18 0 11 0;
#X connect 19 0 20 1;
#X connect 20 0 10 0;
#X connect 20 0 12 0;
